<svg xmlns="http://www.w3.org/2000/svg" xmlns:xlink="http://www.w3.org/1999/xlink" width="500" zoomAndPan="magnify" viewBox="0 0 375 374.999991" height="500" preserveAspectRatio="xMidYMid meet" version="1.0"><defs><clipPath id="ee6ff3140b"><path d="M 106.179688 98.167969 L 268.820312 98.167969 L 268.820312 260.808594 L 106.179688 260.808594 Z M 106.179688 98.167969 " clip-rule="nonzero"/></clipPath><clipPath id="395264fa24"><path d="M 187.5 98.167969 C 142.589844 98.167969 106.179688 134.578125 106.179688 179.488281 C 106.179688 224.402344 142.589844 260.808594 187.5 260.808594 C 232.410156 260.808594 268.820312 224.402344 268.820312 179.488281 C 268.820312 134.578125 232.410156 98.167969 187.5 98.167969 Z M 187.5 98.167969 " clip-rule="nonzero"/></clipPath><clipPath id="f9627885f7"><path d="M 129.960938 174.558594 L 244.710938 174.558594 L 244.710938 276.558594 L 129.960938 276.558594 Z M 129.960938 174.558594 " clip-rule="nonzero"/></clipPath><clipPath id="bcf5c127ec"><path d="M 165.511719 104.511719 L 209 104.511719 L 209 166.761719 L 165.511719 166.761719 Z M 165.511719 104.511719 " clip-rule="nonzero"/></clipPath><clipPath id="df624dc318"><path d="M 100.019531 99.582031 L 106.769531 99.582031 L 106.769531 109.332031 L 100.019531 109.332031 Z M 100.019531 99.582031 " clip-rule="nonzero"/></clipPath></defs><rect x="-37.5" width="450" fill="#ffffff" y="-37.499999" height="449.999989" fill-opacity="1"/><rect x="-37.5" width="450" fill="#ffffff" y="-37.499999" height="449.999989" fill-opacity="1"/><g clip-path="url(#ee6ff3140b)"><g clip-path="url(#395264fa24)"><path fill="#000080" d="M 106.179688 98.167969 L 268.820312 98.167969 L 268.820312 260.808594 L 106.179688 260.808594 Z M 106.179688 98.167969 " fill-opacity="1" fill-rule="nonzero"/></g></g><g clip-path="url(#f9627885f7)"><path fill="#ffffff" d="M 231.726562 181.011719 C 230.417969 177.242188 226.835938 174.558594 222.652344 174.558594 L 152.339844 174.558594 C 148.152344 174.558594 144.574219 177.242188 143.265625 181.011719 L 129.96875 219.300781 L 129.96875 270.433594 C 129.96875 273.949219 132.84375 276.828125 136.359375 276.828125 L 142.753906 276.828125 C 146.300781 276.828125 149.144531 273.949219 149.144531 270.433594 L 149.144531 264.042969 L 225.847656 264.042969 L 225.847656 270.433594 C 225.847656 273.949219 228.722656 276.828125 232.238281 276.828125 L 238.628906 276.828125 C 242.175781 276.828125 245.023438 273.949219 245.023438 270.433594 L 245.023438 219.300781 Z M 152.339844 244.867188 C 147.035156 244.867188 142.753906 240.585938 142.753906 235.28125 C 142.753906 229.972656 147.035156 225.691406 152.339844 225.691406 C 157.644531 225.691406 161.929688 229.972656 161.929688 235.28125 C 161.929688 240.585938 157.644531 244.867188 152.339844 244.867188 Z M 222.652344 244.867188 C 217.34375 244.867188 213.0625 240.585938 213.0625 235.28125 C 213.0625 229.972656 217.34375 225.691406 222.652344 225.691406 C 227.957031 225.691406 232.238281 229.972656 232.238281 235.28125 C 232.238281 240.585938 227.957031 244.867188 222.652344 244.867188 Z M 142.753906 212.90625 L 152.339844 184.144531 L 222.652344 184.144531 L 232.238281 212.90625 Z M 142.753906 212.90625 " fill-opacity="1" fill-rule="nonzero"/></g><g clip-path="url(#bcf5c127ec)"><path fill="#fffcef" d="M 187.195312 104.515625 C 175.222656 104.515625 165.511719 114.226562 165.511719 126.199219 C 165.511719 142.464844 187.195312 166.472656 187.195312 166.472656 C 187.195312 166.472656 208.882812 142.464844 208.882812 126.199219 C 208.882812 114.226562 199.171875 104.515625 187.195312 104.515625 Z M 187.195312 133.945312 C 182.921875 133.945312 179.453125 130.476562 179.453125 126.199219 C 179.453125 121.925781 182.921875 118.457031 187.195312 118.457031 C 191.472656 118.457031 194.941406 121.925781 194.941406 126.199219 C 194.941406 130.476562 191.472656 133.945312 187.195312 133.945312 Z M 187.195312 133.945312 " fill-opacity="1" fill-rule="nonzero"/></g><g clip-path="url(#df624dc318)"><path fill="#ffffff" d="M 106.769531 99.582031 L 106.769531 109.332031 L 100.019531 109.332031 L 100.019531 99.582031 Z M 106.769531 99.582031 " fill-opacity="1" fill-rule="nonzero"/></g></svg>