<svg xmlns="http://www.w3.org/2000/svg" xmlns:xlink="http://www.w3.org/1999/xlink" width="500" zoomAndPan="magnify" viewBox="0 0 375 374.999991" height="500" preserveAspectRatio="xMidYMid meet" version="1.0"><defs><g/><clipPath id="7999ba512f"><path d="M 53.589844 141.160156 L 137.960938 141.160156 L 137.960938 225.53125 L 53.589844 225.53125 Z M 53.589844 141.160156 " clip-rule="nonzero"/></clipPath><clipPath id="1ac259d937"><path d="M 95.777344 141.160156 C 72.480469 141.160156 53.589844 160.046875 53.589844 183.34375 C 53.589844 206.644531 72.480469 225.53125 95.777344 225.53125 C 119.074219 225.53125 137.960938 206.644531 137.960938 183.34375 C 137.960938 160.046875 119.074219 141.160156 95.777344 141.160156 Z M 95.777344 141.160156 " clip-rule="nonzero"/></clipPath><clipPath id="721e279499"><path d="M 65.929688 180.785156 L 125.929688 180.785156 L 125.929688 234 L 65.929688 234 Z M 65.929688 180.785156 " clip-rule="nonzero"/></clipPath><clipPath id="ad54d9a040"><path d="M 84.371094 144.449219 L 106.871094 144.449219 L 106.871094 176.699219 L 84.371094 176.699219 Z M 84.371094 144.449219 " clip-rule="nonzero"/></clipPath><clipPath id="6ec5aa9fec"><path d="M 46.757812 106.480469 L 50.507812 106.480469 L 50.507812 111.730469 L 46.757812 111.730469 Z M 46.757812 106.480469 " clip-rule="nonzero"/></clipPath></defs><rect x="-37.5" width="450" fill="#ffffff" y="-37.499999" height="449.999989" fill-opacity="1"/><rect x="-37.5" width="450" fill="#ffffff" y="-37.499999" height="449.999989" fill-opacity="1"/><g clip-path="url(#7999ba512f)"><g clip-path="url(#1ac259d937)"><path fill="#000080" d="M 53.589844 141.160156 L 137.960938 141.160156 L 137.960938 225.53125 L 53.589844 225.53125 Z M 53.589844 141.160156 " fill-opacity="1" fill-rule="nonzero"/></g></g><g clip-path="url(#721e279499)"><path fill="#ffffff" d="M 118.722656 184.132812 C 118.042969 182.179688 116.183594 180.785156 114.011719 180.785156 L 77.539062 180.785156 C 75.367188 180.785156 73.511719 182.179688 72.832031 184.132812 L 65.933594 203.996094 L 65.933594 230.519531 C 65.933594 232.34375 67.425781 233.835938 69.25 233.835938 L 72.566406 233.835938 C 74.40625 233.835938 75.882812 232.34375 75.882812 230.519531 L 75.882812 227.207031 L 115.671875 227.207031 L 115.671875 230.519531 C 115.671875 232.34375 117.164062 233.835938 118.984375 233.835938 L 122.300781 233.835938 C 124.140625 233.835938 125.617188 232.34375 125.617188 230.519531 L 125.617188 203.996094 Z M 77.539062 217.257812 C 74.789062 217.257812 72.566406 215.035156 72.566406 212.285156 C 72.566406 209.53125 74.789062 207.3125 77.539062 207.3125 C 80.292969 207.3125 82.511719 209.53125 82.511719 212.285156 C 82.511719 215.035156 80.292969 217.257812 77.539062 217.257812 Z M 114.011719 217.257812 C 111.261719 217.257812 109.039062 215.035156 109.039062 212.285156 C 109.039062 209.53125 111.261719 207.3125 114.011719 207.3125 C 116.765625 207.3125 118.984375 209.53125 118.984375 212.285156 C 118.984375 215.035156 116.765625 217.257812 114.011719 217.257812 Z M 72.566406 200.679688 L 77.539062 185.757812 L 114.011719 185.757812 L 118.984375 200.679688 Z M 72.566406 200.679688 " fill-opacity="1" fill-rule="nonzero"/></g><g clip-path="url(#ad54d9a040)"><path fill="#fffcef" d="M 95.621094 144.449219 C 89.410156 144.449219 84.371094 149.488281 84.371094 155.699219 C 84.371094 164.136719 95.621094 176.59375 95.621094 176.59375 C 95.621094 176.59375 106.871094 164.136719 106.871094 155.699219 C 106.871094 149.488281 101.832031 144.449219 95.621094 144.449219 Z M 95.621094 159.71875 C 93.402344 159.71875 91.601562 157.917969 91.601562 155.699219 C 91.601562 153.480469 93.402344 151.679688 95.621094 151.679688 C 97.839844 151.679688 99.636719 153.480469 99.636719 155.699219 C 99.636719 157.917969 97.839844 159.71875 95.621094 159.71875 Z M 95.621094 159.71875 " fill-opacity="1" fill-rule="nonzero"/></g><g clip-path="url(#6ec5aa9fec)"><path fill="#ffffff" d="M 50.507812 106.480469 L 50.507812 111.730469 L 46.757812 111.730469 L 46.757812 106.480469 Z M 50.507812 106.480469 " fill-opacity="1" fill-rule="nonzero"/></g><g fill="#000080" fill-opacity="1"><g transform="translate(151.460063, 194.628945)"><g><path d="M 3.40625 -31.671875 L 13.578125 -31.671875 L 13.578125 -8.09375 L 29.828125 -8.09375 L 29.828125 0 L 3.40625 0 Z M 3.40625 -31.671875 "/></g></g></g><g fill="#000080" fill-opacity="1"><g transform="translate(179.538344, 194.628945)"><g><path d="M 15.328125 -24.859375 C 19.773438 -24.859375 23.171875 -23.8125 25.515625 -21.71875 C 27.867188 -19.632812 29.046875 -16.445312 29.046875 -12.15625 L 29.046875 -10.59375 L 10.8125 -10.59375 C 10.8125 -8.84375 11.203125 -7.519531 11.984375 -6.625 C 12.773438 -5.738281 14.015625 -5.296875 15.703125 -5.296875 C 17.234375 -5.296875 18.359375 -5.617188 19.078125 -6.265625 C 19.796875 -6.910156 20.15625 -7.769531 20.15625 -8.84375 L 29.046875 -8.84375 C 29.046875 -5.894531 27.925781 -3.59375 25.6875 -1.9375 C 23.445312 -0.28125 20.175781 0.546875 15.875 0.546875 C 11.363281 0.546875 7.863281 -0.5 5.375 -2.59375 C 2.894531 -4.695312 1.65625 -7.882812 1.65625 -12.15625 C 1.65625 -16.320312 2.867188 -19.476562 5.296875 -21.625 C 7.722656 -23.78125 11.066406 -24.859375 15.328125 -24.859375 Z M 15.703125 -19.015625 C 12.816406 -19.015625 11.203125 -17.648438 10.859375 -14.921875 L 19.796875 -14.921875 C 19.796875 -16.171875 19.429688 -17.164062 18.703125 -17.90625 C 17.984375 -18.644531 16.984375 -19.015625 15.703125 -19.015625 Z M 15.703125 -19.015625 "/></g></g></g><g fill="#000080" fill-opacity="1"><g transform="translate(207.616624, 194.628945)"><g/></g></g><g fill="#000080" fill-opacity="1"><g transform="translate(220.320656, 194.628945)"><g><path d="M 15.328125 -24.859375 C 19.316406 -24.859375 22.546875 -24.003906 25.015625 -22.296875 C 27.484375 -20.597656 28.71875 -18 28.71875 -14.5 L 19.84375 -14.5 C 19.84375 -17.257812 18.335938 -18.640625 15.328125 -18.640625 C 12.316406 -18.640625 10.8125 -16.90625 10.8125 -13.4375 L 10.8125 -10.8125 C 10.8125 -7.375 12.378906 -5.65625 15.515625 -5.65625 C 18.640625 -5.65625 20.203125 -7.066406 20.203125 -9.890625 L 28.71875 -9.890625 C 28.71875 -6.367188 27.484375 -3.75 25.015625 -2.03125 C 22.546875 -0.3125 19.316406 0.546875 15.328125 0.546875 C 11.066406 0.546875 7.722656 -0.523438 5.296875 -2.671875 C 2.867188 -4.816406 1.65625 -7.976562 1.65625 -12.15625 C 1.65625 -16.320312 2.867188 -19.476562 5.296875 -21.625 C 7.722656 -23.78125 11.066406 -24.859375 15.328125 -24.859375 Z M 15.328125 -24.859375 "/></g></g></g><g fill="#000080" fill-opacity="1"><g transform="translate(248.39894, 194.628945)"><g><path d="M 15.328125 -24.859375 C 19.597656 -24.859375 22.953125 -23.773438 25.390625 -21.609375 C 27.828125 -19.441406 29.046875 -16.289062 29.046875 -12.15625 C 29.046875 -8.007812 27.828125 -4.851562 25.390625 -2.6875 C 22.953125 -0.53125 19.597656 0.546875 15.328125 0.546875 C 11.066406 0.546875 7.722656 -0.523438 5.296875 -2.671875 C 2.867188 -4.816406 1.65625 -7.976562 1.65625 -12.15625 C 1.65625 -16.320312 2.867188 -19.476562 5.296875 -21.625 C 7.722656 -23.78125 11.066406 -24.859375 15.328125 -24.859375 Z M 15.328125 -18.640625 C 12.316406 -18.640625 10.8125 -16.90625 10.8125 -13.4375 L 10.8125 -10.8125 C 10.8125 -7.375 12.316406 -5.65625 15.328125 -5.65625 C 18.367188 -5.65625 19.890625 -7.375 19.890625 -10.8125 L 19.890625 -13.4375 C 19.890625 -16.90625 18.367188 -18.640625 15.328125 -18.640625 Z M 15.328125 -18.640625 "/></g></g></g><g fill="#000080" fill-opacity="1"><g transform="translate(276.477223, 194.628945)"><g><path d="M 3.078125 -27.15625 L 3.078125 -33.375 L 12.25 -33.375 L 12.25 -27.15625 Z M 3.078125 0 L 3.078125 -24.296875 L 12.25 -24.296875 L 12.25 0 Z M 3.078125 0 "/></g></g></g><g fill="#000080" fill-opacity="1"><g transform="translate(289.18126, 194.628945)"><g><path d="M 19.515625 -24.859375 C 22.335938 -24.859375 24.453125 -24.070312 25.859375 -22.5 C 27.273438 -20.9375 27.984375 -18.6875 27.984375 -15.75 L 27.984375 0 L 18.828125 0 L 18.828125 -14.640625 C 18.828125 -15.679688 18.554688 -16.515625 18.015625 -17.140625 C 17.484375 -17.773438 16.726562 -18.09375 15.75 -18.09375 C 14.613281 -18.09375 13.691406 -17.722656 12.984375 -16.984375 C 12.273438 -16.242188 11.921875 -15.335938 11.921875 -14.265625 L 11.921875 0 L 2.765625 0 L 2.765625 -24.296875 L 10.265625 -24.296875 L 10.859375 -20.625 C 11.816406 -21.914062 13.066406 -22.941406 14.609375 -23.703125 C 16.160156 -24.472656 17.796875 -24.859375 19.515625 -24.859375 Z M 19.515625 -24.859375 "/></g></g></g></svg>