<svg xmlns="http://www.w3.org/2000/svg" xmlns:xlink="http://www.w3.org/1999/xlink" width="500" zoomAndPan="magnify" viewBox="0 0 375 374.999991" height="500" preserveAspectRatio="xMidYMid meet" version="1.0"><defs><g/><clipPath id="007134918d"><path d="M 104.648438 84.414062 L 267.289062 84.414062 L 267.289062 247.050781 L 104.648438 247.050781 Z M 104.648438 84.414062 " clip-rule="nonzero"/></clipPath><clipPath id="e9c3479647"><path d="M 185.96875 84.414062 C 141.058594 84.414062 104.648438 120.820312 104.648438 165.730469 C 104.648438 210.644531 141.058594 247.050781 185.96875 247.050781 C 230.882812 247.050781 267.289062 210.644531 267.289062 165.730469 C 267.289062 120.820312 230.882812 84.414062 185.96875 84.414062 Z M 185.96875 84.414062 " clip-rule="nonzero"/></clipPath><clipPath id="17dc0dca70"><path d="M 128.433594 160.800781 L 243.183594 160.800781 L 243.183594 262.800781 L 128.433594 262.800781 Z M 128.433594 160.800781 " clip-rule="nonzero"/></clipPath><clipPath id="64b8619661"><path d="M 163.980469 90.753906 L 207.480469 90.753906 L 207.480469 153 L 163.980469 153 Z M 163.980469 90.753906 " clip-rule="nonzero"/></clipPath><clipPath id="b6aa37e91a"><path d="M 98.488281 106.886719 L 105.238281 106.886719 L 105.238281 116.636719 L 98.488281 116.636719 Z M 98.488281 106.886719 " clip-rule="nonzero"/></clipPath></defs><rect x="-37.5" width="450" fill="#ffffff" y="-37.499999" height="449.999989" fill-opacity="1"/><rect x="-37.5" width="450" fill="#ffffff" y="-37.499999" height="449.999989" fill-opacity="1"/><g clip-path="url(#007134918d)"><g clip-path="url(#e9c3479647)"><path fill="#000080" d="M 104.648438 84.414062 L 267.289062 84.414062 L 267.289062 247.050781 L 104.648438 247.050781 Z M 104.648438 84.414062 " fill-opacity="1" fill-rule="nonzero"/></g></g><g clip-path="url(#17dc0dca70)"><path fill="#ffffff" d="M 230.195312 167.257812 C 228.886719 163.484375 225.308594 160.800781 221.121094 160.800781 L 150.808594 160.800781 C 146.625 160.800781 143.042969 163.484375 141.734375 167.257812 L 128.4375 205.542969 L 128.4375 256.679688 C 128.4375 260.195312 131.316406 263.070312 134.832031 263.070312 L 141.222656 263.070312 C 144.769531 263.070312 147.613281 260.195312 147.613281 256.679688 L 147.613281 250.285156 L 224.316406 250.285156 L 224.316406 256.679688 C 224.316406 260.195312 227.191406 263.070312 230.707031 263.070312 L 237.101562 263.070312 C 240.648438 263.070312 243.492188 260.195312 243.492188 256.679688 L 243.492188 205.542969 Z M 150.808594 231.109375 C 145.503906 231.109375 141.222656 226.828125 141.222656 221.523438 C 141.222656 216.21875 145.503906 211.933594 150.808594 211.933594 C 156.117188 211.933594 160.398438 216.21875 160.398438 221.523438 C 160.398438 226.828125 156.117188 231.109375 150.808594 231.109375 Z M 221.121094 231.109375 C 215.816406 231.109375 211.53125 226.828125 211.53125 221.523438 C 211.53125 216.21875 215.816406 211.933594 221.121094 211.933594 C 226.425781 211.933594 230.707031 216.21875 230.707031 221.523438 C 230.707031 226.828125 226.425781 231.109375 221.121094 231.109375 Z M 141.222656 199.152344 L 150.808594 170.386719 L 221.121094 170.386719 L 230.707031 199.152344 Z M 141.222656 199.152344 " fill-opacity="1" fill-rule="nonzero"/></g><g clip-path="url(#64b8619661)"><path fill="#fffcef" d="M 185.667969 90.757812 C 173.691406 90.757812 163.980469 100.472656 163.980469 112.445312 C 163.980469 128.707031 185.667969 152.71875 185.667969 152.71875 C 185.667969 152.71875 207.351562 128.707031 207.351562 112.445312 C 207.351562 100.472656 197.640625 90.757812 185.667969 90.757812 Z M 185.667969 120.1875 C 181.390625 120.1875 177.921875 116.71875 177.921875 112.445312 C 177.921875 108.167969 181.390625 104.699219 185.667969 104.699219 C 189.941406 104.699219 193.410156 108.167969 193.410156 112.445312 C 193.410156 116.71875 189.941406 120.1875 185.667969 120.1875 Z M 185.667969 120.1875 " fill-opacity="1" fill-rule="nonzero"/></g><g clip-path="url(#b6aa37e91a)"><path fill="#ffffff" d="M 105.238281 106.886719 L 105.238281 116.636719 L 98.488281 116.636719 L 98.488281 106.886719 Z M 105.238281 106.886719 " fill-opacity="1" fill-rule="nonzero"/></g><g fill="#000080" fill-opacity="1"><g transform="translate(106.742159, 277.902728)"><g><path d="M 3.40625 -31.671875 L 13.578125 -31.671875 L 13.578125 -8.09375 L 29.828125 -8.09375 L 29.828125 0 L 3.40625 0 Z M 3.40625 -31.671875 "/></g></g></g><g fill="#000080" fill-opacity="1"><g transform="translate(134.82044, 277.902728)"><g><path d="M 15.328125 -24.859375 C 19.773438 -24.859375 23.171875 -23.8125 25.515625 -21.71875 C 27.867188 -19.632812 29.046875 -16.445312 29.046875 -12.15625 L 29.046875 -10.59375 L 10.8125 -10.59375 C 10.8125 -8.84375 11.203125 -7.519531 11.984375 -6.625 C 12.773438 -5.738281 14.015625 -5.296875 15.703125 -5.296875 C 17.234375 -5.296875 18.359375 -5.617188 19.078125 -6.265625 C 19.796875 -6.910156 20.15625 -7.769531 20.15625 -8.84375 L 29.046875 -8.84375 C 29.046875 -5.894531 27.925781 -3.59375 25.6875 -1.9375 C 23.445312 -0.28125 20.175781 0.546875 15.875 0.546875 C 11.363281 0.546875 7.863281 -0.5 5.375 -2.59375 C 2.894531 -4.695312 1.65625 -7.882812 1.65625 -12.15625 C 1.65625 -16.320312 2.867188 -19.476562 5.296875 -21.625 C 7.722656 -23.78125 11.066406 -24.859375 15.328125 -24.859375 Z M 15.703125 -19.015625 C 12.816406 -19.015625 11.203125 -17.648438 10.859375 -14.921875 L 19.796875 -14.921875 C 19.796875 -16.171875 19.429688 -17.164062 18.703125 -17.90625 C 17.984375 -18.644531 16.984375 -19.015625 15.703125 -19.015625 Z M 15.703125 -19.015625 "/></g></g></g><g fill="#000080" fill-opacity="1"><g transform="translate(162.898721, 277.902728)"><g/></g></g><g fill="#000080" fill-opacity="1"><g transform="translate(175.602753, 277.902728)"><g><path d="M 15.328125 -24.859375 C 19.316406 -24.859375 22.546875 -24.003906 25.015625 -22.296875 C 27.484375 -20.597656 28.71875 -18 28.71875 -14.5 L 19.84375 -14.5 C 19.84375 -17.257812 18.335938 -18.640625 15.328125 -18.640625 C 12.316406 -18.640625 10.8125 -16.90625 10.8125 -13.4375 L 10.8125 -10.8125 C 10.8125 -7.375 12.378906 -5.65625 15.515625 -5.65625 C 18.640625 -5.65625 20.203125 -7.066406 20.203125 -9.890625 L 28.71875 -9.890625 C 28.71875 -6.367188 27.484375 -3.75 25.015625 -2.03125 C 22.546875 -0.3125 19.316406 0.546875 15.328125 0.546875 C 11.066406 0.546875 7.722656 -0.523438 5.296875 -2.671875 C 2.867188 -4.816406 1.65625 -7.976562 1.65625 -12.15625 C 1.65625 -16.320312 2.867188 -19.476562 5.296875 -21.625 C 7.722656 -23.78125 11.066406 -24.859375 15.328125 -24.859375 Z M 15.328125 -24.859375 "/></g></g></g><g fill="#000080" fill-opacity="1"><g transform="translate(203.681036, 277.902728)"><g><path d="M 15.328125 -24.859375 C 19.597656 -24.859375 22.953125 -23.773438 25.390625 -21.609375 C 27.828125 -19.441406 29.046875 -16.289062 29.046875 -12.15625 C 29.046875 -8.007812 27.828125 -4.851562 25.390625 -2.6875 C 22.953125 -0.53125 19.597656 0.546875 15.328125 0.546875 C 11.066406 0.546875 7.722656 -0.523438 5.296875 -2.671875 C 2.867188 -4.816406 1.65625 -7.976562 1.65625 -12.15625 C 1.65625 -16.320312 2.867188 -19.476562 5.296875 -21.625 C 7.722656 -23.78125 11.066406 -24.859375 15.328125 -24.859375 Z M 15.328125 -18.640625 C 12.316406 -18.640625 10.8125 -16.90625 10.8125 -13.4375 L 10.8125 -10.8125 C 10.8125 -7.375 12.316406 -5.65625 15.328125 -5.65625 C 18.367188 -5.65625 19.890625 -7.375 19.890625 -10.8125 L 19.890625 -13.4375 C 19.890625 -16.90625 18.367188 -18.640625 15.328125 -18.640625 Z M 15.328125 -18.640625 "/></g></g></g><g fill="#000080" fill-opacity="1"><g transform="translate(231.75932, 277.902728)"><g><path d="M 3.078125 -27.15625 L 3.078125 -33.375 L 12.25 -33.375 L 12.25 -27.15625 Z M 3.078125 0 L 3.078125 -24.296875 L 12.25 -24.296875 L 12.25 0 Z M 3.078125 0 "/></g></g></g><g fill="#000080" fill-opacity="1"><g transform="translate(244.463357, 277.902728)"><g><path d="M 19.515625 -24.859375 C 22.335938 -24.859375 24.453125 -24.070312 25.859375 -22.5 C 27.273438 -20.9375 27.984375 -18.6875 27.984375 -15.75 L 27.984375 0 L 18.828125 0 L 18.828125 -14.640625 C 18.828125 -15.679688 18.554688 -16.515625 18.015625 -17.140625 C 17.484375 -17.773438 16.726562 -18.09375 15.75 -18.09375 C 14.613281 -18.09375 13.691406 -17.722656 12.984375 -16.984375 C 12.273438 -16.242188 11.921875 -15.335938 11.921875 -14.265625 L 11.921875 0 L 2.765625 0 L 2.765625 -24.296875 L 10.265625 -24.296875 L 10.859375 -20.625 C 11.816406 -21.914062 13.066406 -22.941406 14.609375 -23.703125 C 16.160156 -24.472656 17.796875 -24.859375 19.515625 -24.859375 Z M 19.515625 -24.859375 "/></g></g></g></svg>